HIERARCHY
ROOT Hips
{
	OFFSET 0.000000 0.000000 0.000000
	CHANNELS 6 Xposition Yposition Zposition Zrotation Yrotation Xrotation 
	JOINT LHipJoint
	{
		OFFSET 0.000000 0.000000 0.000000
		CHANNELS 3 Zrotation Yrotation Xrotation
		JOINT LeftUpLeg
		{
			OFFSET 1.363060 -1.794630 0.839290
			CHANNELS 3 Zrotation Yrotation Xrotation
			JOINT LeftLeg
			{
				OFFSET 2.448110 -6.726130 0.000000
				CHANNELS 3 Zrotation Yrotation Xrotation
				JOINT LeftFoot
				{
					OFFSET 2.562200 -7.039590 0.000000
					CHANNELS 3 Zrotation Yrotation Xrotation
					JOINT LeftToeBase
					{
						OFFSET 0.157640 -0.433110 2.322550
						CHANNELS 3 Zrotation Yrotation Xrotation
						End Site
						{
							OFFSET 0.000000 0.000000 0.000000
						}
					}
				}
			}
		}
	}
	JOINT RHipJoint
	{
		OFFSET 0.000000 0.000000 0.000000
		CHANNELS 3 Zrotation Yrotation Xrotation
		JOINT RightUpLeg
		{
			OFFSET -1.305520 -1.794630 0.839290
			CHANNELS 3 Zrotation Yrotation Xrotation
			JOINT RightLeg
			{
				OFFSET -2.542530 -6.985550 0.000000
				CHANNELS 3 Zrotation Yrotation Xrotation
				JOINT RightFoot
				{
					OFFSET -2.568260 -7.056230 0.000000
					CHANNELS 3 Zrotation Yrotation Xrotation
					JOINT RightToeBase
					{
						OFFSET -0.164730 -0.452590 2.363150
						CHANNELS 3 Zrotation Yrotation Xrotation
						End Site
						{
							OFFSET 0.000000 0.000000 0.000000
						}
					}
				}
			}
		}
	}
	JOINT LowerBack
	{
		OFFSET 0.000000 0.000000 0.000000
		CHANNELS 3 Zrotation Yrotation Xrotation
		JOINT Spine
		{
			OFFSET 0.028270 2.035590 -0.193380
			CHANNELS 3 Zrotation Yrotation Xrotation
			JOINT Spine1
			{
				OFFSET 0.056720 2.048850 -0.042750
				CHANNELS 3 Zrotation Yrotation Xrotation
				JOINT Neck
				{
					OFFSET 0.000000 0.000000 0.000000
					CHANNELS 3 Zrotation Yrotation Xrotation
					JOINT Neck1
					{
						OFFSET -0.054170 1.746240 0.172020
						CHANNELS 3 Zrotation Yrotation Xrotation
						JOINT Head
						{
							OFFSET 0.104070 1.761360 -0.123970
							CHANNELS 3 Zrotation Yrotation Xrotation
							End Site
							{
								OFFSET 0.000000 0.000000 0.000000
							}
						}
					}
				}
				JOINT LeftShoulder
				{
					OFFSET 0.000000 0.000000 0.000000
					CHANNELS 3 Zrotation Yrotation Xrotation
					JOINT LeftArm
					{
						OFFSET 3.362410 1.200890 -0.311210
						CHANNELS 3 Zrotation Yrotation Xrotation
						JOINT LeftForeArm
						{
							OFFSET 4.983000 -0.000000 -0.000000
							CHANNELS 3 Zrotation Yrotation Xrotation
							JOINT LeftHand
							{
								OFFSET 3.483560 -0.000000 -0.000000
								CHANNELS 3 Zrotation Yrotation Xrotation
								JOINT LeftFingerBase
								{
									OFFSET 0.000000 0.000000 0.000000
									CHANNELS 3 Zrotation Yrotation Xrotation
									JOINT LeftHandIndex1
									{
										OFFSET 0.715260 -0.000000 -0.000000
										CHANNELS 3 Zrotation Yrotation Xrotation
										End Site
										{
											OFFSET 0.000000 0.000000 0.000000
										}
									}
								}
								JOINT LThumb
								{
									OFFSET 0.000000 0.000000 0.000000
									CHANNELS 3 Zrotation Yrotation Xrotation
									End Site
									{
										OFFSET 0.000000 0.000000 0.000000
									}
								}
							}
						}
					}
				}
				JOINT RightShoulder
				{
					OFFSET 0.000000 0.000000 0.000000
					CHANNELS 3 Zrotation Yrotation Xrotation
					JOINT RightArm
					{
						OFFSET -3.136600 1.374050 -0.404650
						CHANNELS 3 Zrotation Yrotation Xrotation
						JOINT RightForeArm
						{
							OFFSET -5.241900 -0.000000 -0.000000
							CHANNELS 3 Zrotation Yrotation Xrotation
							JOINT RightHand
							{
								OFFSET -3.444170 -0.000000 -0.000000
								CHANNELS 3 Zrotation Yrotation Xrotation
								JOINT RightFingerBase
								{
									OFFSET 0.000000 0.000000 0.000000
									CHANNELS 3 Zrotation Yrotation Xrotation
									JOINT RightHandIndex1
									{
										OFFSET -0.622530 -0.000000 -0.000000
										CHANNELS 3 Zrotation Yrotation Xrotation
										End Site
										{
											OFFSET 0.000000 0.000000 0.000000
										}
									}
								}
								JOINT RThumb
								{
									OFFSET 0.000000 0.000000 0.000000
									CHANNELS 3 Zrotation Yrotation Xrotation
									End Site
									{
										OFFSET 0.000000 0.000000 0.000000
									}
								}
							}
						}
					}
				}
			}
		}
	}
}
MOTION
Frames: 4
Frame Time: 0.008333
16.259986 17.825828 -33.619452 -2.293361 -11.299865 14.502227 -4.939510 -1.298074 0.120115 -7.542139 -2.535210 -21.048337 1.018491 9.524913 27.087650 1.597376 11.511907 -35.237786 4.177300 12.392600 37.135500 2.217638 0.882157 -0.786130 7.783524 7.041887 -20.650057 -3.255084 -10.998218 32.226920 -1.913197 21.826531 -19.097565 -13.664300 -19.009000 71.176600 -0.993882 -1.275334 0.239802 0.718271 -1.646666 -4.392785 2.242752 -1.078549 2.320475 -3.352486 -1.991601 -12.677980 6.817702 -3.048023 14.333184 1.112500 -0.991400 4.834700 10.529343 -3.286898 2.204889 -93.297184 11.211763 48.628298 48.769901 -53.453039 -20.267484 -1.491415 1.623855 -18.971507 4.096796 19.465667 1.499400 -7.125000 0.000000 0.000000 -21.519100 46.265600 -0.704500 -8.406974 3.106179 0.820358 95.475506 -2.382603 31.379616 -23.790953 35.081845 -7.309344 0.612641 -0.716338 10.855189 -26.917009 -22.047422 10.750000 7.125000 0.000000 0.000000 1.065000 -53.665600 -0.226900 
16.173942 17.824762 -33.653464 -2.269992 -11.575874 14.734782 -4.928698 -1.307213 0.096935 -7.244275 -2.765029 -21.152131 1.003073 9.501650 27.019719 1.586615 11.692291 -35.388176 4.243000 12.476900 37.440600 2.242201 0.883100 -0.784471 8.116747 7.144079 -20.762529 -3.187634 -10.907432 31.907930 -2.300097 20.635318 -21.227687 -13.564800 -18.976700 70.871000 -1.090115 -1.347459 0.139164 0.705302 -1.740331 -4.448643 2.244623 -1.120754 2.272256 -3.337199 -1.838502 -12.649680 6.880603 -2.855441 14.005341 1.137800 -0.903400 4.715100 10.556992 -3.295641 2.200693 -93.292523 10.945437 48.268856 46.869470 -52.574658 -19.026082 -1.509959 1.668635 -18.787736 4.194468 20.526650 1.618300 -7.125000 0.000000 0.000000 -21.847100 47.220800 -1.254900 -8.408551 3.107981 0.824807 95.627655 -2.660590 31.666873 -24.211507 35.522674 -7.522817 0.625762 -0.726390 10.817144 -26.876248 -21.520873 10.486300 7.125000 0.000000 0.000000 0.966100 -53.079100 -0.192000 
16.083634 17.820604 -33.684384 -2.247109 -11.758015 14.855096 -4.919391 -1.302578 0.088798 -6.927183 -2.946442 -21.159964 0.992566 9.483851 26.953928 1.568479 11.697072 -35.333488 4.385000 12.655800 38.093200 2.279410 0.876487 -0.783992 8.462523 7.684703 -20.507790 -3.117770 -10.822461 31.604906 -2.819793 18.944806 -24.146373 -13.329700 -18.898000 70.146400 -1.195065 -1.437603 0.108933 0.698231 -1.854457 -4.481636 2.256049 -1.175769 2.236603 -3.297360 -1.714424 -12.669433 6.918312 -2.698132 13.735230 1.147700 -0.830800 4.624700 10.583535 -3.302799 2.195622 -93.244737 10.752812 47.975561 45.168550 -51.709558 -17.903338 -1.477588 1.720718 -18.559967 4.713496 20.389918 1.755100 -7.125000 0.000000 0.000000 -21.340700 47.120900 -1.168300 -8.410421 3.113661 0.831767 95.771675 -2.909102 31.942624 -24.585199 35.915547 -7.723231 0.636049 -0.726507 10.747259 -27.129748 -21.525974 10.601500 7.125000 0.000000 0.000000 0.692100 -53.131500 -0.138400 
15.992792 17.817725 -33.719143 -2.231151 -12.051035 15.101907 -4.897843 -1.315995 0.063987 -6.616958 -3.083401 -21.320190 0.978556 9.462605 26.895651 1.526066 12.031912 -35.492426 4.336300 12.595000 37.870800 2.294474 0.880693 -0.782153 8.801244 7.705614 -20.714397 -3.035745 -10.728104 31.301848 -3.071086 17.140550 -25.649946 -13.147800 -18.834900 69.584000 -1.257459 -1.521593 -0.003429 0.681540 -1.964914 -4.544292 2.228197 -1.225527 2.179811 -3.383220 -1.552739 -12.613848 7.041928 -2.494465 13.430310 1.213800 -0.737400 4.508400 10.607099 -3.320215 2.192741 -93.231028 10.597534 47.530818 43.596233 -50.866341 -16.898030 -1.473431 1.763481 -18.423471 4.963970 20.878085 1.874000 -7.125000 0.000000 0.000000 -21.316900 47.570400 -1.413100 -8.413955 3.113657 0.836883 95.923634 -3.196567 32.271292 -24.972451 36.314124 -7.926224 0.647736 -0.733840 10.719994 -27.207093 -21.166519 10.464800 7.125000 0.000000 0.000000 0.517000 -52.748600 -0.098600 
